<svg preserveAspectRatio="xMidYMid meet" data-bbox="0 20.006 512 471.989" xmlns="http://www.w3.org/2000/svg" width="512"
     viewBox="0 20.006 512 471.989" height="512" style="color: var(--map-icon-color, #ffffff);" data-type="shape"
     role="presentation" aria-hidden="true" aria-label="">
  <g fill="currentColor">
    <path
      d="M338 131.934c17.645 0 32-14.355 32-32s-14.355-32-32-32-32 14.355-32 32 14.355 32 32 32m0-44c6.617 0 12 5.383 12 12s-5.383 12-12 12-12-5.383-12-12 5.383-12 12-12"></path>
    <path
      d="M507.435 21.612a10 10 0 0 0-9.527-.73l-90.186 40.45a80 80 0 0 0-13.379-17.741c-31.068-31.067-81.619-31.067-112.687 0a80 80 0 0 0-13.378 17.741l-90.185-40.45a10 10 0 0 0-8.185 0l-164 73.558A10 10 0 0 0 0 103.563v364.432a10 10 0 0 0 14.093 9.125l137.252-61.56a49.3 49.3 0 0 0 12.656 4.471v61.964c0 5.523 4.477 10 10 10s10-4.477 10-10v-61.964a49.3 49.3 0 0 0 12.656-4.471l137.251 61.56a10 10 0 0 0 8.184 0l164-73.558a10 10 0 0 0 5.908-9.124V30.006a10 10 0 0 0-4.565-8.394M295.799 57.733C307.434 46.097 322.717 40.281 338 40.281s30.566 5.817 42.201 17.453a59.57 59.57 0 0 1 6.603 76.553L338 203.621l-48.804-69.335a59.57 59.57 0 0 1 6.603-76.553M20 110.037l154-69.072 86.835 38.947a79.6 79.6 0 0 0-2.372 25.24l-80.371-36.048a10 10 0 0 0-8.185 0l-120 53.823a10 10 0 0 0-5.908 9.124v267.986a10 10 0 0 0 14.093 9.124l66.797-29.96a49.5 49.5 0 0 0 9.442 22.069L20 452.55zm183.747 261.257c0 16.402-13.344 29.747-29.747 29.747s-29.747-13.344-29.747-29.747 13.344-29.747 29.747-29.747 29.747 13.345 29.747 29.747M492 387.963l-154 69.072-124.331-55.765a49.5 49.5 0 0 0 9.442-22.069l110.797 49.695a10 10 0 0 0 8.184 0l120-53.823a10 10 0 0 0 5.908-9.125V294c0-5.523-4.477-10-10-10s-10 4.477-10 10v65.474l-110 49.337-116.479-52.242c-6.292-20.264-25.215-35.022-47.521-35.022s-41.229 14.758-47.521 35.021L64 384.592V138.526l110-49.337 90.02 40.376a80.2 80.2 0 0 0 8.821 16.234l56.981 80.953a10 10 0 0 0 16.354 0l56.981-80.953a80 80 0 0 0 8.821-16.234L448 113.408V204c0 5.523 4.477 10 10 10s10-4.477 10-10V97.963a10 10 0 0 0-14.092-9.124l-36.371 16.313a79.6 79.6 0 0 0-2.372-25.24L492 45.45z"></path>
    <path
      d="M458 239c-2.63 0-5.21 1.07-7.07 2.93S448 246.37 448 249s1.07 5.21 2.93 7.07S455.37 259 458 259s5.21-1.07 7.07-2.93S468 251.63 468 249s-1.07-5.21-2.93-7.07S460.63 239 458 239"></path>
    <path
      d="M172.148 270.129c-5.457.852-9.189 5.966-8.337 11.423.126.805.189 1.626.189 2.442 0 5.523 4.477 10 10 10s10-4.477 10-10c0-1.846-.144-3.706-.429-5.528-.852-5.456-5.964-9.192-11.423-8.337"></path>
    <path
      d="m277.159 268.384-5.946-4.905c-4.259-3.514-10.563-2.909-14.078 1.35s-2.91 10.563 1.35 14.078l5.946 4.905a9.96 9.96 0 0 0 6.358 2.287 9.98 9.98 0 0 0 7.719-3.637c3.516-4.261 2.911-10.564-1.349-14.078"></path>
    <path
      d="M214.173 184.989c-3.119-4.557-9.342-5.723-13.9-2.604-4.558 3.12-5.724 9.343-2.604 13.9l4.354 6.361a9.99 9.99 0 0 0 8.261 4.353 9.95 9.95 0 0 0 5.639-1.749c4.558-3.12 5.724-9.343 2.604-13.9z"></path>
    <path
      d="M242.47 226.334c-3.12-4.557-9.343-5.722-13.9-2.604-4.558 3.12-5.724 9.343-2.604 13.9l4.354 6.361a9.99 9.99 0 0 0 8.261 4.353 9.95 9.95 0 0 0 5.639-1.749c4.558-3.12 5.724-9.343 2.604-13.9z"></path>
    <path
      d="M311.846 288.064a19.6 19.6 0 0 1-5.066.28c-5.515-.427-10.313 3.698-10.736 9.205s3.699 10.313 9.205 10.736a39.4 39.4 0 0 0 10.282-.564c5.428-1.017 9.004-6.243 7.987-11.671-1.018-5.429-6.244-9.003-11.672-7.986"></path>
    <path
      d="M184.3 149.716a53 53 0 0 0-8.525-4.164c-5.161-1.97-10.94.616-12.909 5.775s.616 10.939 5.775 12.909a33 33 0 0 1 5.307 2.592 9.993 9.993 0 0 0 13.732-3.38c2.859-4.725 1.345-10.873-3.38-13.732"></path>
    <path
      d="m149.966 242.884-.667-.417a54 54 0 0 1-4.775-3.356c-4.34-3.417-10.627-2.668-14.043 1.671-3.417 4.339-2.668 10.626 1.671 14.043a74 74 0 0 0 6.548 4.604l.667.417a9.996 9.996 0 0 0 13.78-3.181c2.927-4.685 1.502-10.855-3.181-13.781"></path>
    <path
      d="M124.379 203.207c-.655-5.484-5.635-9.399-11.115-8.744-5.484.655-9.399 5.631-8.744 11.115a74 74 0 0 0 1.588 8.766c1.116 4.568 5.205 7.629 9.707 7.629.786 0 1.584-.093 2.381-.288 5.365-1.311 8.652-6.723 7.341-12.088a54 54 0 0 1-1.158-6.39"></path>
    <path
      d="M137.698 168.254c4.484-3.224 5.506-9.473 2.282-13.957-3.225-4.485-9.473-5.506-13.957-2.282a53 53 0 0 0-7.176 6.209c-3.836 3.974-3.724 10.304.25 14.14a9.96 9.96 0 0 0 6.944 2.805 9.97 9.97 0 0 0 7.196-3.055 33 33 0 0 1 4.461-3.86"></path>
    <path
      d="M338 253.495c-5.523 0-10 4.477-10 10v4c0 5.523 4.477 10 10 10s10-4.477 10-10v-4c0-5.523-4.477-10-10-10"></path>
  </g>
</svg>
